<svg width="40" height="38" viewBox="0 0 40 38" fill="none" xmlns="http://www.w3.org/2000/svg">
<mask id="path-1-outside-1_174_242" maskUnits="userSpaceOnUse" x="4" y="3.75" width="32" height="18" fill="black">
<rect fill="white" x="4" y="3.75" width="32" height="18"/>
<path fill-rule="evenodd" clip-rule="evenodd" d="M10 20.5833H20H31C33.2091 20.5833 35 18.7925 35 16.5833V15.0833C35 12.8742 33.2091 11.0833 31 11.0833H29.7844C29.0653 11.0833 28.7058 11.0833 28.4581 10.9234C28.2105 10.7635 28.0278 10.3587 27.6623 9.54916C26.3883 6.72692 23.4372 4.75 20 4.75C16.5628 4.75 13.6117 6.72692 12.3377 9.54916C11.9722 10.3587 11.7895 10.7635 11.5419 10.9234C11.2942 11.0833 10.9347 11.0833 10.2156 11.0833H10C7.23858 11.0833 5 13.21 5 15.8333C5 18.4567 7.23858 20.5833 10 20.5833Z"/>
</mask>
<path fill-rule="evenodd" clip-rule="evenodd" d="M10 20.5833H20H31C33.2091 20.5833 35 18.7925 35 16.5833V15.0833C35 12.8742 33.2091 11.0833 31 11.0833H29.7844C29.0653 11.0833 28.7058 11.0833 28.4581 10.9234C28.2105 10.7635 28.0278 10.3587 27.6623 9.54916C26.3883 6.72692 23.4372 4.75 20 4.75C16.5628 4.75 13.6117 6.72692 12.3377 9.54916C11.9722 10.3587 11.7895 10.7635 11.5419 10.9234C11.2942 11.0833 10.9347 11.0833 10.2156 11.0833H10C7.23858 11.0833 5 13.21 5 15.8333C5 18.4567 7.23858 20.5833 10 20.5833Z" fill="white" fill-opacity="0.5"/>
<path d="M12.3377 9.54916L11.7908 9.3023L12.3377 9.54916ZM11.5419 10.9234L11.2164 10.4194L11.5419 10.9234ZM27.6623 9.54916L27.1155 9.79602L27.6623 9.54916ZM28.4581 10.9234L28.1327 11.4274L28.4581 10.9234ZM20 19.9833H10V21.1833H20V19.9833ZM31 19.9833H20V21.1833H31V19.9833ZM34.4 16.5833C34.4 18.4611 32.8778 19.9833 31 19.9833V21.1833C33.5405 21.1833 35.6 19.1238 35.6 16.5833H34.4ZM34.4 15.0833V16.5833H35.6V15.0833H34.4ZM31 11.6833C32.8778 11.6833 34.4 13.2056 34.4 15.0833H35.6C35.6 12.5428 33.5405 10.4833 31 10.4833V11.6833ZM29.7844 11.6833H31V10.4833H29.7844V11.6833ZM28.2092 9.3023C26.8362 6.26061 23.6681 4.15 20 4.15V5.35C23.2063 5.35 25.9405 7.19322 27.1155 9.79602L28.2092 9.3023ZM20 4.15C16.3319 4.15 13.1638 6.26061 11.7908 9.3023L12.8845 9.79602C14.0595 7.19322 16.7937 5.35 20 5.35V4.15ZM10 11.6833H10.2156V10.4833H10V11.6833ZM10 10.4833C6.93658 10.4833 4.4 12.85 4.4 15.8333H5.6C5.6 13.57 7.54058 11.6833 10 11.6833V10.4833ZM4.4 15.8333C4.4 18.8167 6.93658 21.1833 10 21.1833V19.9833C7.54058 19.9833 5.6 18.0967 5.6 15.8333H4.4ZM11.7908 9.3023C11.6039 9.71644 11.478 9.99408 11.3699 10.1907C11.2575 10.3949 11.2091 10.4241 11.2164 10.4194L11.8673 11.4274C12.1223 11.2628 12.289 11.0096 12.4213 10.7691C12.5578 10.5209 12.706 10.1914 12.8845 9.79602L11.7908 9.3023ZM10.2156 11.6833C10.5633 11.6833 10.8665 11.684 11.1122 11.6607C11.3643 11.6367 11.6267 11.5828 11.8673 11.4274L11.2164 10.4194C11.2093 10.4239 11.1681 10.45 10.9988 10.466C10.8231 10.4827 10.5869 10.4833 10.2156 10.4833V11.6833ZM29.7844 10.4833C29.4131 10.4833 29.1769 10.4827 29.0012 10.466C28.8319 10.45 28.7907 10.4239 28.7836 10.4194L28.1327 11.4274C28.3733 11.5828 28.6357 11.6367 28.8878 11.6607C29.1335 11.684 29.4367 11.6833 29.7844 11.6833V10.4833ZM27.1155 9.79602C27.294 10.1914 27.4422 10.5209 27.5787 10.7691C27.711 11.0096 27.8777 11.2628 28.1327 11.4274L28.7836 10.4194C28.7909 10.4241 28.7425 10.3949 28.6301 10.1907C28.522 9.99408 28.3961 9.71644 28.2092 9.3023L27.1155 9.79602Z" fill="white" fill-opacity="0.5" mask="url(#path-1-outside-1_174_242)"/>
<path fill-rule="evenodd" clip-rule="evenodd" d="M19.9999 4.15C16.3318 4.15 13.1637 6.26061 11.7907 9.3023C11.6038 9.71644 11.4779 9.99408 11.3698 10.1907C11.27 10.3721 11.2206 10.4154 11.2159 10.4195C11.2157 10.4197 11.2156 10.4198 11.2156 10.4198L11.2163 10.4194C11.2092 10.4239 11.168 10.45 10.9987 10.466C10.823 10.4827 10.5868 10.4833 10.2155 10.4833H9.9999C6.93648 10.4833 4.3999 12.85 4.3999 15.8333C4.3999 18.8167 6.93648 21.1833 9.9999 21.1833H13.1312L14.3943 19.9833H9.9999C7.54048 19.9833 5.5999 18.0967 5.5999 15.8333C5.5999 13.57 7.54048 11.6833 9.9999 11.6833H10.2155L10.2424 11.6833H10.2424C10.5789 11.6834 10.8727 11.6834 11.1121 11.6607C11.3642 11.6367 11.6266 11.5828 11.8673 11.4274C12.1222 11.2628 12.2889 11.0096 12.4212 10.7691C12.555 10.5258 12.7002 10.2042 12.8741 9.81901L12.8844 9.79602C14.0594 7.19322 16.7936 5.35 19.9999 5.35C23.2062 5.35 25.9404 7.19322 27.1154 9.79602L27.1257 9.81898L27.1257 9.81902C27.2996 10.2042 27.4448 10.5258 27.5786 10.7691C27.7109 11.0096 27.8776 11.2628 28.1326 11.4274C28.3732 11.5828 28.6356 11.6367 28.8877 11.6607C29.1271 11.6834 29.4209 11.6834 29.7574 11.6833L29.7843 11.6833H30.9999C32.8777 11.6833 34.3999 13.2056 34.3999 15.0833V16.5833C34.3999 18.4611 32.8777 19.9833 30.9999 19.9833H25.6055L26.8686 21.1833H30.9999C33.5404 21.1833 35.5999 19.1238 35.5999 16.5833V15.0833C35.5999 12.5428 33.5404 10.4833 30.9999 10.4833H29.7843C29.413 10.4833 29.1768 10.4827 29.0011 10.466C28.8367 10.4504 28.7931 10.4254 28.7842 10.4198M19.9999 4.15C23.668 4.15 26.8361 6.26061 28.2091 9.3023ZM28.2091 9.3023C28.396 9.71644 28.5219 9.99408 28.63 10.1907ZM28.63 10.1907C28.7298 10.3721 28.7792 10.4154 28.7839 10.4195Z" fill="#717785"/>
<path d="M20.0002 19L19.5869 18.565L20.0002 18.1724L20.4134 18.565L20.0002 19ZM20.6002 33.25C20.6002 33.5814 20.3315 33.85 20.0002 33.85C19.6688 33.85 19.4002 33.5814 19.4002 33.25L20.6002 33.25ZM12.9202 24.8983L19.5869 18.565L20.4134 19.435L13.7467 25.7683L12.9202 24.8983ZM20.4134 18.565L27.0801 24.8983L26.2536 25.7683L19.5869 19.435L20.4134 18.565ZM20.6002 19L20.6002 33.25L19.4002 33.25L19.4002 19L20.6002 19Z" fill="#717785"/>
</svg>
