<svg width="25" height="26" viewBox="0 0 25 26" fill="none" xmlns="http://www.w3.org/2000/svg">
<mask id="path-1-outside-1_118_322" maskUnits="userSpaceOnUse" x="2.125" y="2.17542" width="21" height="13" fill="black">
<rect fill="white" x="2.125" y="2.17542" width="21" height="13"/>
<path fill-rule="evenodd" clip-rule="evenodd" d="M12.5032 13.7601C12.5021 13.7601 12.5011 13.7601 12.5 13.7601C12.4989 13.7601 12.4979 13.7601 12.4968 13.7601H6.25C4.52411 13.7601 3.125 12.3384 3.125 10.5847C3.125 8.83097 4.52411 7.40929 6.25 7.40929V7.40929C6.56546 7.40929 6.72319 7.40929 6.8357 7.38293C7.10825 7.31909 7.2402 7.23282 7.40801 7.00878C7.47728 6.91629 7.56458 6.71696 7.73916 6.31829C8.55009 4.46653 10.3767 3.17542 12.5 3.17542C14.641 3.17542 16.4802 4.48805 17.2808 6.36451C17.4309 6.7163 17.506 6.8922 17.5615 6.97342C17.736 7.22892 17.8888 7.32983 18.1923 7.39012C18.2888 7.40929 18.4257 7.40929 18.6996 7.40929V7.40929C20.4533 7.40929 21.875 8.83096 21.875 10.5847C21.875 12.3384 20.4533 13.7601 18.6996 13.7601H12.5032Z"/>
</mask>
<path fill-rule="evenodd" clip-rule="evenodd" d="M12.5032 13.7601C12.5021 13.7601 12.5011 13.7601 12.5 13.7601C12.4989 13.7601 12.4979 13.7601 12.4968 13.7601H6.25C4.52411 13.7601 3.125 12.3384 3.125 10.5847C3.125 8.83097 4.52411 7.40929 6.25 7.40929V7.40929C6.56546 7.40929 6.72319 7.40929 6.8357 7.38293C7.10825 7.31909 7.2402 7.23282 7.40801 7.00878C7.47728 6.91629 7.56458 6.71696 7.73916 6.31829C8.55009 4.46653 10.3767 3.17542 12.5 3.17542C14.641 3.17542 16.4802 4.48805 17.2808 6.36451C17.4309 6.7163 17.506 6.8922 17.5615 6.97342C17.736 7.22892 17.8888 7.32983 18.1923 7.39012C18.2888 7.40929 18.4257 7.40929 18.6996 7.40929V7.40929C20.4533 7.40929 21.875 8.83096 21.875 10.5847C21.875 12.3384 20.4533 13.7601 18.6996 13.7601H12.5032Z" fill="white" fill-opacity="0.5"/>
<path d="M7.40801 7.00878L6.92778 6.64908L7.40801 7.00878ZM6.8357 7.38293L6.69886 6.79875L6.8357 7.38293ZM18.1923 7.39012L18.3092 6.80162L18.1923 7.39012ZM17.5615 6.97342L18.0569 6.63494L17.5615 6.97342ZM12.5 13.1601H6.25V14.3601H12.5V13.1601ZM18.6996 13.1601H12.5V14.3601H18.6996V13.1601ZM21.275 10.5847C21.275 12.007 20.122 13.1601 18.6996 13.1601V14.3601C20.7847 14.3601 22.475 12.6698 22.475 10.5847H21.275ZM18.6996 8.00929C20.122 8.00929 21.275 9.16234 21.275 10.5847H22.475C22.475 8.49959 20.7847 6.80929 18.6996 6.80929V8.00929ZM17.8327 6.12905C16.9428 4.04346 14.8941 2.57542 12.5 2.57542V3.77542C14.3878 3.77542 16.0176 4.93263 16.7289 6.59997L17.8327 6.12905ZM12.5 2.57542C10.1257 2.57542 8.09087 4.01943 7.18955 6.07761L8.28877 6.55898C9.00931 4.91363 10.6277 3.77542 12.5 3.77542V2.57542ZM6.25 6.80929C4.18372 6.80929 2.525 8.50868 2.525 10.5847H3.725C3.725 9.15325 4.8645 8.00929 6.25 8.00929V6.80929ZM2.525 10.5847C2.525 12.6607 4.18372 14.3601 6.25 14.3601V13.1601C4.8645 13.1601 3.725 12.0161 3.725 10.5847H2.525ZM7.18955 6.07761C7.10084 6.28019 7.03919 6.42084 6.99113 6.52302C6.93857 6.6348 6.9218 6.65706 6.92778 6.64908L7.88824 7.36847C7.96349 7.268 8.02501 7.14435 8.07705 7.03368C8.13361 6.91341 8.2029 6.75506 8.28877 6.55898L7.18955 6.07761ZM6.25 8.00929C6.52541 8.00929 6.77431 8.01355 6.97254 7.96712L6.69886 6.79875C6.69978 6.79853 6.67828 6.80351 6.5977 6.80637C6.5179 6.8092 6.41212 6.80929 6.25 6.80929V8.00929ZM6.92778 6.64908C6.86625 6.73124 6.84008 6.74898 6.83281 6.75373C6.82554 6.75848 6.79879 6.77534 6.69886 6.79875L6.97254 7.96712C7.14515 7.92669 7.32066 7.86848 7.48945 7.75813C7.65824 7.64778 7.78196 7.51036 7.88824 7.36847L6.92778 6.64908ZM18.6996 6.80929C18.559 6.80929 18.4668 6.80922 18.3973 6.80716C18.3266 6.80506 18.3079 6.80136 18.3092 6.80162L18.0754 7.97862C18.2455 8.01241 18.4604 8.00929 18.6996 8.00929V6.80929ZM16.7289 6.59997C16.8028 6.77315 16.8622 6.91245 16.9101 7.01811C16.9539 7.11471 17.0054 7.22309 17.066 7.31189L18.0569 6.63494C18.062 6.64252 18.0482 6.62235 18.0031 6.52275C17.9621 6.43221 17.9089 6.30766 17.8327 6.12905L16.7289 6.59997ZM18.3092 6.80162C18.2004 6.78 18.1689 6.76073 18.1592 6.75434C18.1495 6.74794 18.1195 6.72656 18.0569 6.63494L17.066 7.31189C17.178 7.47578 17.3116 7.63261 17.4978 7.75561C17.684 7.87861 17.8807 7.93995 18.0754 7.97862L18.3092 6.80162Z" fill="white" fill-opacity="0.5" mask="url(#path-1-outside-1_118_322)"/>
<path fill-rule="evenodd" clip-rule="evenodd" d="M12.5 2.57541C10.1257 2.57541 8.0909 4.01943 7.18958 6.0776C7.10086 6.28018 7.03921 6.42083 6.99116 6.52301C6.95223 6.60578 6.93294 6.63947 6.92797 6.64814C6.92704 6.64977 6.92662 6.65051 6.92666 6.65054L6.9278 6.64908C6.86627 6.73123 6.84011 6.74897 6.83283 6.75372C6.82556 6.75848 6.79882 6.77533 6.69888 6.79874C6.69892 6.79873 6.69892 6.79873 6.69887 6.79874C6.69779 6.79896 6.67476 6.80363 6.59772 6.80636C6.51793 6.80919 6.41214 6.80928 6.25002 6.80928C4.18375 6.80928 2.52502 8.50868 2.52502 10.5847C2.52502 12.6607 4.18375 14.3601 6.25002 14.3601H7.02015L8.2011 13.1601H6.25002C4.86452 13.1601 3.72502 12.0161 3.72502 10.5847C3.72502 9.15324 4.86452 8.00928 6.25002 8.00928L6.31418 8.00933H6.31419C6.56408 8.00964 6.78984 8.00991 6.97257 7.96711C7.14518 7.92668 7.32068 7.86848 7.48947 7.75813C7.65827 7.64778 7.78198 7.51036 7.88826 7.36847C7.96351 7.268 8.02503 7.14435 8.07708 7.03368C8.13283 6.91513 8.20094 6.75958 8.28511 6.56738L8.28514 6.56731L8.28879 6.55897C9.00933 4.91362 10.6277 3.77541 12.5 3.77541C14.3879 3.77541 16.0176 4.93263 16.729 6.59997L16.732 6.60697L16.732 6.60699C16.8045 6.77691 16.8629 6.91388 16.9101 7.0181C16.9539 7.1147 17.0054 7.22309 17.0661 7.31189C17.178 7.47577 17.3116 7.6326 17.4978 7.7556C17.6841 7.87861 17.8807 7.93994 18.0754 7.97862C18.2321 8.00975 18.4269 8.00954 18.6436 8.00932L18.6996 8.00928C20.122 8.00928 21.275 9.16233 21.275 10.5847C21.275 12.007 20.122 13.1601 18.6996 13.1601H16.799L17.9799 14.3601H18.6996C20.7847 14.3601 22.475 12.6698 22.475 10.5847C22.475 8.49959 20.7847 6.80928 18.6996 6.80928C18.559 6.80928 18.4668 6.80922 18.3973 6.80715C18.3314 6.80519 18.3107 6.80185 18.3092 6.80162C18.3091 6.8016 18.3091 6.8016 18.3092 6.80162C18.2004 6.77999 18.1689 6.76073 18.1592 6.75433C18.1496 6.74793 18.1195 6.72655 18.0569 6.63493L18.0579 6.63637C18.058 6.63635 18.0575 6.63559 18.0567 6.63391C18.0522 6.62565 18.036 6.59524 18.0031 6.52274C17.9621 6.4322 17.9089 6.30766 17.8327 6.12905C16.9429 4.04345 14.8941 2.57541 12.5 2.57541Z" fill="#717785"/>
<path d="M12.5 12.7016L12.0724 12.2808L12.5 11.8462L12.9277 12.2808L12.5 12.7016ZM13.1 22.2278C13.1 22.5592 12.8314 22.8278 12.5 22.8278C12.1687 22.8278 11.9 22.5592 11.9 22.2278L13.1 22.2278ZM7.90573 16.5146L12.0724 12.2808L12.9277 13.1225L8.76102 17.3564L7.90573 16.5146ZM12.9277 12.2808L17.0944 16.5146L16.2391 17.3564L12.0724 13.1225L12.9277 12.2808ZM13.1 12.7016L13.1 22.2278L11.9 22.2278L11.9 12.7016L13.1 12.7016Z" fill="#717785"/>
</svg>
