<svg width="24" height="24" viewBox="0 0 24 24" fill="none" xmlns="http://www.w3.org/2000/svg">
<path fill-rule="evenodd" clip-rule="evenodd" d="M4.17157 4.11894C3 5.29051 3 7.17613 3 10.9474V12.6316C3 12.8404 3 13.0434 3.0002 13.2409L4.76726 11.7528L4.79627 11.7284C5.62082 11.034 6.27853 10.4802 6.84227 10.1208C7.42048 9.75226 7.98005 9.53456 8.59712 9.62404C8.7387 9.64457 8.87825 9.67721 9.01424 9.72161C9.60698 9.91513 10.0119 10.3584 10.3667 10.9452C10.7125 11.5173 11.0563 12.3055 11.4873 13.2936L11.4873 13.2936L11.5025 13.3283C11.7172 13.8205 11.8594 14.1438 11.9937 14.367C12.1227 14.5812 12.1998 14.6247 12.2465 14.6415C12.2725 14.6508 12.2992 14.658 12.3263 14.6629C12.3737 14.6715 12.4629 14.6727 12.6862 14.549C12.9176 14.4208 13.2072 14.2087 13.6453 13.8859L13.6658 13.8708L13.6658 13.8708C14.1345 13.5254 14.516 13.2443 14.8502 13.0462C15.1983 12.8397 15.5322 12.6999 15.9118 12.6656C15.9662 12.6607 16.0208 12.6576 16.0755 12.6562C16.4557 12.6469 16.8012 12.7461 17.1682 12.9098C17.5198 13.0666 17.9262 13.2995 18.4246 13.5852L18.4246 13.5852L18.4468 13.5979L20.9835 15.0517C21 14.344 21 13.5429 21 12.6316V10.9474C21 7.17613 21 5.29051 19.8284 4.11894C18.6569 2.94737 16.7712 2.94737 13 2.94737H11C7.22876 2.94737 5.34315 2.94737 4.17157 4.11894ZM20.9358 16.1769L17.9496 14.4655C17.4236 14.1641 17.0609 13.9569 16.7608 13.8231C16.4708 13.6937 16.2784 13.6515 16.1 13.6559C16.0672 13.6567 16.0344 13.6586 16.0018 13.6615C15.8249 13.6775 15.6374 13.742 15.3602 13.9063C15.0741 14.076 14.7326 14.3269 14.2385 14.691L14.2116 14.7108C13.8078 15.0084 13.4658 15.2603 13.1709 15.4238C12.8613 15.5953 12.5249 15.7152 12.1479 15.6469C12.0664 15.6321 11.9862 15.6106 11.9083 15.5825C11.549 15.4534 11.3186 15.1843 11.137 14.8828C10.9647 14.5966 10.7969 14.2119 10.5993 13.7589L10.5993 13.7589L10.5859 13.7281C10.1363 12.6974 9.81824 11.971 9.51089 11.4626C9.20837 10.9622 8.96464 10.7574 8.70389 10.6722C8.6223 10.6456 8.53856 10.626 8.45362 10.6137C8.18217 10.5743 7.87288 10.6498 7.37979 10.9641C6.87883 11.2834 6.27159 11.7934 5.4114 12.5178L3.00747 14.5421C3.04027 17.0774 3.2172 18.5056 4.17157 19.46C5.34315 20.6316 7.22876 20.6316 11 20.6316H13C16.7712 20.6316 18.6569 20.6316 19.8284 19.46C20.555 18.7334 20.831 17.7322 20.9358 16.1769Z" fill="#7E869E" fill-opacity="0.8"/>
<ellipse cx="16" cy="7.85965" rx="2" ry="1.96491" fill="white"/>
</svg>
