<svg width="25" height="26" viewBox="0 0 25 26" fill="none" xmlns="http://www.w3.org/2000/svg">
<mask id="path-1-outside-1_118_181" maskUnits="userSpaceOnUse" x="2.125" y="2.17542" width="21" height="13" fill="black">
<rect fill="white" x="2.125" y="2.17542" width="21" height="13"/>
<path fill-rule="evenodd" clip-rule="evenodd" d="M12.5032 13.7601C12.5021 13.7601 12.5011 13.7601 12.5 13.7601C12.4989 13.7601 12.4979 13.7601 12.4968 13.7601H6.25C4.52411 13.7601 3.125 12.3384 3.125 10.5847C3.125 8.83097 4.52411 7.40929 6.25 7.40929V7.40929C6.56546 7.40929 6.72319 7.40929 6.8357 7.38293C7.10825 7.31909 7.2402 7.23282 7.40801 7.00878C7.47728 6.91629 7.56458 6.71696 7.73916 6.31829C8.55009 4.46653 10.3767 3.17542 12.5 3.17542C14.641 3.17542 16.4802 4.48805 17.2808 6.36451C17.4309 6.7163 17.506 6.8922 17.5615 6.97342C17.736 7.22892 17.8888 7.32983 18.1923 7.39012C18.2888 7.40929 18.4257 7.40929 18.6996 7.40929V7.40929C20.4533 7.40929 21.875 8.83096 21.875 10.5847C21.875 12.3384 20.4533 13.7601 18.6996 13.7601H12.5032Z"/>
</mask>
<path fill-rule="evenodd" clip-rule="evenodd" d="M12.5032 13.7601C12.5021 13.7601 12.5011 13.7601 12.5 13.7601C12.4989 13.7601 12.4979 13.7601 12.4968 13.7601H6.25C4.52411 13.7601 3.125 12.3384 3.125 10.5847C3.125 8.83097 4.52411 7.40929 6.25 7.40929V7.40929C6.56546 7.40929 6.72319 7.40929 6.8357 7.38293C7.10825 7.31909 7.2402 7.23282 7.40801 7.00878C7.47728 6.91629 7.56458 6.71696 7.73916 6.31829C8.55009 4.46653 10.3767 3.17542 12.5 3.17542C14.641 3.17542 16.4802 4.48805 17.2808 6.36451C17.4309 6.7163 17.506 6.8922 17.5615 6.97342C17.736 7.22892 17.8888 7.32983 18.1923 7.39012C18.2888 7.40929 18.4257 7.40929 18.6996 7.40929V7.40929C20.4533 7.40929 21.875 8.83096 21.875 10.5847C21.875 12.3384 20.4533 13.7601 18.6996 13.7601H12.5032Z" fill="white" fill-opacity="0.5"/>
<path d="M7.40801 7.00878L6.92778 6.64908L7.40801 7.00878ZM6.8357 7.38293L6.69886 6.79875L6.8357 7.38293ZM18.1923 7.39012L18.3092 6.80162L18.1923 7.39012ZM17.5615 6.97342L18.0569 6.63494L17.5615 6.97342ZM12.5 13.1601H6.25V14.3601H12.5V13.1601ZM18.6996 13.1601H12.5V14.3601H18.6996V13.1601ZM21.275 10.5847C21.275 12.007 20.122 13.1601 18.6996 13.1601V14.3601C20.7847 14.3601 22.475 12.6698 22.475 10.5847H21.275ZM18.6996 8.00929C20.122 8.00929 21.275 9.16234 21.275 10.5847H22.475C22.475 8.49959 20.7847 6.80929 18.6996 6.80929V8.00929ZM17.8327 6.12905C16.9428 4.04346 14.8941 2.57542 12.5 2.57542V3.77542C14.3878 3.77542 16.0176 4.93263 16.7289 6.59997L17.8327 6.12905ZM12.5 2.57542C10.1257 2.57542 8.09087 4.01943 7.18955 6.07761L8.28877 6.55898C9.00931 4.91363 10.6277 3.77542 12.5 3.77542V2.57542ZM6.25 6.80929C4.18372 6.80929 2.525 8.50868 2.525 10.5847H3.725C3.725 9.15325 4.8645 8.00929 6.25 8.00929V6.80929ZM2.525 10.5847C2.525 12.6607 4.18372 14.3601 6.25 14.3601V13.1601C4.8645 13.1601 3.725 12.0161 3.725 10.5847H2.525ZM7.18955 6.07761C7.10084 6.28019 7.03919 6.42084 6.99113 6.52302C6.93857 6.6348 6.9218 6.65706 6.92778 6.64908L7.88824 7.36847C7.96349 7.268 8.02501 7.14435 8.07705 7.03368C8.13361 6.91341 8.2029 6.75506 8.28877 6.55898L7.18955 6.07761ZM6.25 8.00929C6.52541 8.00929 6.77431 8.01355 6.97254 7.96712L6.69886 6.79875C6.69978 6.79853 6.67828 6.80351 6.5977 6.80637C6.5179 6.8092 6.41212 6.80929 6.25 6.80929V8.00929ZM6.92778 6.64908C6.86625 6.73124 6.84008 6.74898 6.83281 6.75373C6.82554 6.75848 6.79879 6.77534 6.69886 6.79875L6.97254 7.96712C7.14515 7.92669 7.32066 7.86848 7.48945 7.75813C7.65824 7.64778 7.78196 7.51036 7.88824 7.36847L6.92778 6.64908ZM18.6996 6.80929C18.559 6.80929 18.4668 6.80922 18.3973 6.80716C18.3266 6.80506 18.3079 6.80136 18.3092 6.80162L18.0754 7.97862C18.2455 8.01241 18.4604 8.00929 18.6996 8.00929V6.80929ZM16.7289 6.59997C16.8028 6.77315 16.8622 6.91245 16.9101 7.01811C16.9539 7.11471 17.0054 7.22309 17.066 7.31189L18.0569 6.63494C18.062 6.64252 18.0482 6.62235 18.0031 6.52275C17.9621 6.43221 17.9089 6.30766 17.8327 6.12905L16.7289 6.59997ZM18.3092 6.80162C18.2004 6.78 18.1689 6.76073 18.1592 6.75434C18.1495 6.74794 18.1195 6.72656 18.0569 6.63494L17.066 7.31189C17.178 7.47578 17.3116 7.63261 17.4978 7.75561C17.684 7.87861 17.8807 7.93995 18.0754 7.97862L18.3092 6.80162Z" fill="white" fill-opacity="0.5" mask="url(#path-1-outside-1_118_181)"/>
<path fill-rule="evenodd" clip-rule="evenodd" d="M12.5 2.57544C10.1257 2.57544 8.09087 4.01946 7.18954 6.07763C7.10083 6.28021 7.03918 6.42086 6.99113 6.52304C6.9522 6.60581 6.93291 6.6395 6.92794 6.64817C6.92701 6.6498 6.92659 6.65055 6.92663 6.65057L6.92777 6.64911C6.86624 6.73126 6.84008 6.749 6.8328 6.75375C6.82553 6.75851 6.79879 6.77536 6.69885 6.79877C6.69889 6.79876 6.69889 6.79876 6.69884 6.79877C6.69776 6.79899 6.67472 6.80366 6.59769 6.80639C6.5179 6.80922 6.41211 6.80931 6.24999 6.80931C4.18372 6.80931 2.52499 8.50871 2.52499 10.5847C2.52499 12.6607 4.18372 14.3601 6.24999 14.3601H7.02012L8.20107 13.1601H6.24999C4.86449 13.1601 3.72499 12.0162 3.72499 10.5847C3.72499 9.15327 4.86449 8.00931 6.24999 8.00931L6.31415 8.00936H6.31416C6.56405 8.00967 6.78981 8.00994 6.97254 7.96714C7.14515 7.92671 7.32065 7.86851 7.48944 7.75816C7.65824 7.64781 7.78195 7.51039 7.88823 7.3685C7.96348 7.26803 8.025 7.14438 8.07705 7.03371C8.1328 6.91516 8.20091 6.75961 8.28508 6.56741L8.28511 6.56734L8.28876 6.55901C9.0093 4.91365 10.6277 3.77544 12.5 3.77544C14.3878 3.77544 16.0176 4.93266 16.7289 6.6L16.7319 6.607L16.7319 6.60702C16.8044 6.77694 16.8629 6.91391 16.9101 7.01813C16.9539 7.11473 17.0054 7.22312 17.066 7.31192C17.178 7.4758 17.3116 7.63263 17.4978 7.75564C17.684 7.87864 17.8807 7.93997 18.0754 7.97865C18.2321 8.00978 18.4268 8.00958 18.6436 8.00935L18.6996 8.00931C20.1219 8.00931 21.275 9.16236 21.275 10.5847C21.275 12.0071 20.1219 13.1601 18.6996 13.1601H16.7989L17.9799 14.3601H18.6996C20.7847 14.3601 22.475 12.6698 22.475 10.5847C22.475 8.49962 20.7847 6.80931 18.6996 6.80931C18.559 6.80931 18.4668 6.80925 18.3973 6.80718C18.3314 6.80522 18.3107 6.80188 18.3092 6.80165C18.3091 6.80163 18.3091 6.80163 18.3092 6.80165C18.2004 6.78003 18.1689 6.76076 18.1592 6.75436C18.1495 6.74796 18.1195 6.72658 18.0569 6.63496L18.0579 6.6364C18.0579 6.63638 18.0575 6.63562 18.0566 6.63395C18.0522 6.62568 18.036 6.59527 18.0031 6.52277C17.9621 6.43223 17.9089 6.30769 17.8327 6.12908C16.9428 4.04348 14.8941 2.57544 12.5 2.57544Z" fill="#717785"/>
<path d="M12.5 12.7017L12.0724 12.2808L12.5 11.8463L12.9276 12.2808L12.5 12.7017ZM13.1 22.2279C13.1 22.5592 12.8314 22.8279 12.5 22.8279C12.1686 22.8279 11.9 22.5592 11.9 22.2279L13.1 22.2279ZM7.90568 16.5147L12.0724 12.2808L12.9276 13.1225L8.76097 17.3564L7.90568 16.5147ZM12.9276 12.2808L17.0943 16.5147L16.239 17.3564L12.0724 13.1225L12.9276 12.2808ZM13.1 12.7017L13.1 22.2279L11.9 22.2279L11.9 12.7017L13.1 12.7017Z" fill="#717785"/>
</svg>
