<svg width="25" height="26" viewBox="0 0 25 26" fill="none" xmlns="http://www.w3.org/2000/svg">
<mask id="path-1-outside-1_172_195" maskUnits="userSpaceOnUse" x="2.125" y="2.17542" width="21" height="13" fill="black">
<rect fill="white" x="2.125" y="2.17542" width="21" height="13"/>
<path fill-rule="evenodd" clip-rule="evenodd" d="M12.5032 13.7601C12.5021 13.7601 12.5011 13.7601 12.5 13.7601C12.4989 13.7601 12.4979 13.7601 12.4968 13.7601H6.25C4.52411 13.7601 3.125 12.3384 3.125 10.5847C3.125 8.83097 4.52411 7.40929 6.25 7.40929V7.40929C6.56546 7.40929 6.72319 7.40929 6.8357 7.38293C7.10825 7.31909 7.2402 7.23282 7.40801 7.00878C7.47728 6.91629 7.56458 6.71696 7.73916 6.31829C8.55009 4.46653 10.3767 3.17542 12.5 3.17542C14.641 3.17542 16.4802 4.48805 17.2808 6.36451C17.4309 6.7163 17.506 6.8922 17.5615 6.97342C17.736 7.22892 17.8888 7.32983 18.1923 7.39012C18.2888 7.40929 18.4257 7.40929 18.6996 7.40929V7.40929C20.4533 7.40929 21.875 8.83096 21.875 10.5847C21.875 12.3384 20.4533 13.7601 18.6996 13.7601H12.5032Z"/>
</mask>
<path fill-rule="evenodd" clip-rule="evenodd" d="M12.5032 13.7601C12.5021 13.7601 12.5011 13.7601 12.5 13.7601C12.4989 13.7601 12.4979 13.7601 12.4968 13.7601H6.25C4.52411 13.7601 3.125 12.3384 3.125 10.5847C3.125 8.83097 4.52411 7.40929 6.25 7.40929V7.40929C6.56546 7.40929 6.72319 7.40929 6.8357 7.38293C7.10825 7.31909 7.2402 7.23282 7.40801 7.00878C7.47728 6.91629 7.56458 6.71696 7.73916 6.31829C8.55009 4.46653 10.3767 3.17542 12.5 3.17542C14.641 3.17542 16.4802 4.48805 17.2808 6.36451C17.4309 6.7163 17.506 6.8922 17.5615 6.97342C17.736 7.22892 17.8888 7.32983 18.1923 7.39012C18.2888 7.40929 18.4257 7.40929 18.6996 7.40929V7.40929C20.4533 7.40929 21.875 8.83096 21.875 10.5847C21.875 12.3384 20.4533 13.7601 18.6996 13.7601H12.5032Z" fill="white" fill-opacity="0.5"/>
<path d="M7.40801 7.00878L6.92778 6.64908L7.40801 7.00878ZM6.8357 7.38293L6.69886 6.79875L6.8357 7.38293ZM18.1923 7.39012L18.3092 6.80162L18.1923 7.39012ZM17.5615 6.97342L18.0569 6.63494L17.5615 6.97342ZM12.5 13.1601H6.25V14.3601H12.5V13.1601ZM18.6996 13.1601H12.5V14.3601H18.6996V13.1601ZM21.275 10.5847C21.275 12.007 20.122 13.1601 18.6996 13.1601V14.3601C20.7847 14.3601 22.475 12.6698 22.475 10.5847H21.275ZM18.6996 8.00929C20.122 8.00929 21.275 9.16234 21.275 10.5847H22.475C22.475 8.49959 20.7847 6.80929 18.6996 6.80929V8.00929ZM17.8327 6.12905C16.9428 4.04346 14.8941 2.57542 12.5 2.57542V3.77542C14.3878 3.77542 16.0176 4.93263 16.7289 6.59997L17.8327 6.12905ZM12.5 2.57542C10.1257 2.57542 8.09087 4.01943 7.18955 6.07761L8.28877 6.55898C9.00931 4.91363 10.6277 3.77542 12.5 3.77542V2.57542ZM6.25 6.80929C4.18372 6.80929 2.525 8.50868 2.525 10.5847H3.725C3.725 9.15325 4.8645 8.00929 6.25 8.00929V6.80929ZM2.525 10.5847C2.525 12.6607 4.18372 14.3601 6.25 14.3601V13.1601C4.8645 13.1601 3.725 12.0161 3.725 10.5847H2.525ZM7.18955 6.07761C7.10084 6.28019 7.03919 6.42084 6.99113 6.52302C6.93857 6.6348 6.9218 6.65706 6.92778 6.64908L7.88824 7.36847C7.96349 7.268 8.02501 7.14435 8.07705 7.03368C8.13361 6.91341 8.2029 6.75506 8.28877 6.55898L7.18955 6.07761ZM6.25 8.00929C6.52541 8.00929 6.77431 8.01355 6.97254 7.96712L6.69886 6.79875C6.69978 6.79853 6.67828 6.80351 6.5977 6.80637C6.5179 6.8092 6.41212 6.80929 6.25 6.80929V8.00929ZM6.92778 6.64908C6.86625 6.73124 6.84008 6.74898 6.83281 6.75373C6.82554 6.75848 6.79879 6.77534 6.69886 6.79875L6.97254 7.96712C7.14515 7.92669 7.32066 7.86848 7.48945 7.75813C7.65824 7.64778 7.78196 7.51036 7.88824 7.36847L6.92778 6.64908ZM18.6996 6.80929C18.559 6.80929 18.4668 6.80922 18.3973 6.80716C18.3266 6.80506 18.3079 6.80136 18.3092 6.80162L18.0754 7.97862C18.2455 8.01241 18.4604 8.00929 18.6996 8.00929V6.80929ZM16.7289 6.59997C16.8028 6.77315 16.8622 6.91245 16.9101 7.01811C16.9539 7.11471 17.0054 7.22309 17.066 7.31189L18.0569 6.63494C18.062 6.64252 18.0482 6.62235 18.0031 6.52275C17.9621 6.43221 17.9089 6.30766 17.8327 6.12905L16.7289 6.59997ZM18.3092 6.80162C18.2004 6.78 18.1689 6.76073 18.1592 6.75434C18.1495 6.74794 18.1195 6.72656 18.0569 6.63494L17.066 7.31189C17.178 7.47578 17.3116 7.63261 17.4978 7.75561C17.684 7.87861 17.8807 7.93995 18.0754 7.97862L18.3092 6.80162Z" fill="white" fill-opacity="0.5" mask="url(#path-1-outside-1_172_195)"/>
<path fill-rule="evenodd" clip-rule="evenodd" d="M12.4999 2.57541C10.1256 2.57541 8.09078 4.01943 7.18945 6.0776C7.10074 6.28018 7.03909 6.42083 6.99104 6.52301C6.95211 6.60578 6.93282 6.63947 6.92785 6.64814C6.92692 6.64977 6.92649 6.65051 6.92653 6.65054L6.92768 6.64908C6.86615 6.73123 6.83998 6.74897 6.83271 6.75372C6.82544 6.75848 6.7987 6.77533 6.69876 6.79874C6.6988 6.79873 6.6988 6.79873 6.69875 6.79874C6.69767 6.79896 6.67463 6.80363 6.5976 6.80636C6.51781 6.80919 6.41202 6.80928 6.2499 6.80928C4.18363 6.80928 2.5249 8.50868 2.5249 10.5847C2.5249 12.6607 4.18363 14.3601 6.2499 14.3601H7.02003L8.20098 13.1601H6.2499C4.8644 13.1601 3.7249 12.0161 3.7249 10.5847C3.7249 9.15324 4.8644 8.00928 6.2499 8.00928L6.31406 8.00933H6.31406C6.56396 8.00964 6.78972 8.00991 6.97245 7.96711C7.14505 7.92668 7.32056 7.86848 7.48935 7.75813C7.65814 7.64778 7.78186 7.51036 7.88814 7.36847C7.96339 7.268 8.02491 7.14435 8.07696 7.03368C8.13271 6.91513 8.20082 6.75958 8.28499 6.56738L8.28502 6.56731L8.28867 6.55897C9.00921 4.91362 10.6276 3.77541 12.4999 3.77541C14.3878 3.77541 16.0175 4.93263 16.7289 6.59997L16.7318 6.60697L16.7318 6.60699C16.8043 6.77691 16.8628 6.91388 16.91 7.0181C16.9538 7.1147 17.0053 7.22309 17.0659 7.31189C17.1779 7.47577 17.3115 7.6326 17.4977 7.7556C17.6839 7.87861 17.8806 7.93994 18.0753 7.97862C18.232 8.00975 18.4267 8.00954 18.6435 8.00932L18.6995 8.00928C20.1219 8.00928 21.2749 9.16233 21.2749 10.5847C21.2749 12.007 20.1219 13.1601 18.6995 13.1601H16.7988L17.9798 14.3601H18.6995C20.7846 14.3601 22.4749 12.6698 22.4749 10.5847C22.4749 8.49959 20.7846 6.80928 18.6995 6.80928C18.5589 6.80928 18.4667 6.80922 18.3972 6.80715C18.3313 6.80519 18.3106 6.80185 18.3091 6.80162C18.309 6.8016 18.309 6.8016 18.3091 6.80162C18.2003 6.77999 18.1688 6.76073 18.1591 6.75433C18.1494 6.74793 18.1194 6.72655 18.0568 6.63493L18.0578 6.63637C18.0578 6.63635 18.0574 6.63559 18.0565 6.63391C18.0521 6.62565 18.0359 6.59524 18.003 6.52274C17.962 6.4322 17.9088 6.30766 17.8326 6.12905C16.9427 4.04345 14.894 2.57541 12.4999 2.57541Z" fill="#717785"/>
<path d="M12.5002 12.7016L12.0725 12.2808L12.5002 11.8462L12.9278 12.2808L12.5002 12.7016ZM13.1002 22.2278C13.1002 22.5592 12.8315 22.8278 12.5002 22.8278C12.1688 22.8278 11.9002 22.5592 11.9002 22.2278L13.1002 22.2278ZM7.90585 16.5146L12.0725 12.2808L12.9278 13.1225L8.76114 17.3564L7.90585 16.5146ZM12.9278 12.2808L17.0945 16.5146L16.2392 17.3564L12.0725 13.1225L12.9278 12.2808ZM13.1002 12.7016L13.1002 22.2278L11.9002 22.2278L11.9002 12.7016L13.1002 12.7016Z" fill="#717785"/>
</svg>
